PathFileType	4	(X/Y/Z)	/Users/itak/Documents/Research/Walk-IL/dataset/trc/00482_00167.trc
DataRate	CameraRate	NumFrames	NumMarkers	Units	OrigDataRate	OrigDataStartFrame	OrigNumFrames
100.000000	100.000000	4	53	mm	100.000000	483	552
Frame#	Time	RPSI			LPSI			L3			STRN			T10			C7			CLAV			RBAK			LBAK			LSHO			LUPA			LAEL			LAOL			LWTS			LWPS			LFRA			LIFD			LHPS			LHTS			RSHO			RUPA			RAEL			RAOL			RWTS			RWPS			RFRA			RIFD			RHTS			RHPS			RBHD			LFHD			RFHD			LBHD			LHIP			RHIP			RASI			LASI			LKNE			LTHI			LANK			LTIP			LTOE			LMT1			LMT5			LHEE			RKNE			RTHI			RANK			RTIP			RTOE			RMT1			RMT5			RHEE			
		X1	Y1	Z1	X2	Y2	Z2	X3	Y3	Z3	X4	Y4	Z4	X5	Y5	Z5	X6	Y6	Z6	X7	Y7	Z7	X8	Y8	Z8	X9	Y9	Z9	X10	Y10	Z10	X11	Y11	Z11	X12	Y12	Z12	X13	Y13	Z13	X14	Y14	Z14	X15	Y15	Z15	X16	Y16	Z16	X17	Y17	Z17	X18	Y18	Z18	X19	Y19	Z19	X20	Y20	Z20	X21	Y21	Z21	X22	Y22	Z22	X23	Y23	Z23	X24	Y24	Z24	X25	Y25	Z25	X26	Y26	Z26	X27	Y27	Z27	X28	Y28	Z28	X29	Y29	Z29	X30	Y30	Z30	X31	Y31	Z31	X32	Y32	Z32	X33	Y33	Z33	X34	Y34	Z34	X35	Y35	Z35	X36	Y36	Z36	X37	Y37	Z37	X38	Y38	Z38	X39	Y39	Z39	X40	Y40	Z40	X41	Y41	Z41	X42	Y42	Z42	X43	Y43	Z43	X44	Y44	Z44	X45	Y45	Z45	X46	Y46	Z46	X47	Y47	Z47	X48	Y48	Z48	X49	Y49	Z49	X50	Y50	Z50	X51	Y51	Z51	X52	Y52	Z52	X53	Y53	Z53	

484	4.83	-593.3130493164062	963.4951171875	-360.2235717773438	-615.6807861328125	960.7269897460938	-220.5835876464844	-613.3699951171875	1057.259765625	-303.8830261230469	-876.7933349609375	1255.419067382812	-321.1542663574219	-592.0201416015625	1180.421508789062	-293.9530639648438	-654.7233276367188	1452.27783203125	-307.8275146484375	-837.3358154296875	1366.767822265625	-311.812255859375	-580.1821899414062	1330.51904296875	-394.5697021484375	-627.3786010742188	1402.998657226562	-208.8481903076172	-734.1295166015625	1420.515258789062	-136.525634765625	-724.8504028320312	1301.423095703125	-39.33371353149414	-749.0848999023438	1091.526000976562	2.858897686004639	-675.7369995117188	1067.773071289062	-67.07783508300781	-852.734375	901.3260498046875	-25.4434757232666	-802.3314208984375	880.9109497070312	25.44223213195801	-776.6910400390625	1006.973937988281	17.39688110351562	-882.4195556640625	747.231689453125	-2.512866258621216	-819.3919677734375	806.8488159179688	30.89778137207031	-879.090087890625	822.2119750976562	-8.122376441955566	-701.0139770507812	1424.364501953125	-471.2935485839844	-668.6064453125	1368.291748046875	-544.9813232421875	-652.7197265625	1090.9189453125	-627.3079223632812	-613.048095703125	1066.77978515625	-577.2498779296875	-769.343505859375	889.0313720703125	-630.549072265625	-693.0111694335938	877.0867309570312	-673.5999145507812	-655.7684936523438	1034.181274414062	-644.2567749023438	-775.2274780273438	735.8800048828125	-657.6658325195312	-784.7860107421875	795.185791015625	-654.5765380859375	-711.453125	792.776123046875	-684.953369140625	-818.4319458007812	1633.99365234375	-408.5374145507812	-943.3411865234375	1592.425170898438	-248.8592376708984	-946.4925537109375	1590.195190429688	-379.269287109375	-801.9131469726562	1648.119873046875	-232.3465576171875	-767.20263671875	863.48388671875	-121.6236724853516	-688.824462890625	862.7093505859375	-512.2682495117188	-805.2005615234375	904.1163940429688	-470.9242553710938	-852.061767578125	899.4514770507812	-216.1742095947266	-747.9628295898438	447.5826721191406	-152.0779876708984	-784.3939819335938	598.6378784179688	-139.4874572753906	-675.7186889648438	41.77267074584961	-144.2095489501953	-738.8516845703125	301.6183471679688	-134.7125396728516	-900.2408447265625	43.0020866394043	-241.0800323486328	-818.9073486328125	48.47406768798828	-259.0907287597656	-830.9373168945312	46.44315719604492	-146.8849029541016	-623.1090087890625	46.11059951782227	-202.932373046875	-715.7769165039062	473.9223327636719	-520.7808227539062	-731.2769775390625	734.9329833984375	-537.7106323242188	-689.568359375	41.33423614501953	-551.821533203125	-722.6231079101562	334.1318664550781	-541.6162109375	-903.8704223632812	46.6944580078125	-490.8342895507812	-837.0711059570312	49.62035369873047	-462.1468200683594	-825.1484375	47.96586227416992	-569.0494384765625	-623.9201049804688	31.78751754760742	-508.8355712890625	
485	4.84	-595.0448608398438	963.9436645507812	-361.5483093261719	-617.6110229492188	961.0396118164062	-222.0500335693359	-615.1005859375	1057.440795898438	-305.3941040039062	-878.178955078125	1256.233520507812	-323.4854125976562	-593.126708984375	1180.670288085938	-295.916015625	-655.6630859375	1452.308837890625	-310.2913513183594	-838.517822265625	1367.568237304688	-314.2892456054688	-581.5785522460938	1330.426879882812	-397.0505981445312	-628.5671997070312	1403.149291992188	-211.2416534423828	-735.3896484375	1421.057495117188	-138.9221496582031	-726.1087646484375	1301.6201171875	-42.12937927246094	-748.42041015625	1091.219116210938	-1.333184003829956	-675.9749755859375	1068.748779296875	-72.53348541259766	-847.3331298828125	897.9795532226562	-27.41773223876953	-795.3531494140625	879.272216796875	22.52248764038086	-773.6215209960938	1006.027160644531	13.73785209655762	-871.8223876953125	743.1029052734375	-2.97048807144165	-809.9711303710938	804.8031616210938	28.59675598144531	-870.9420166015625	818.0811157226562	-9.175946235656738	-702.1215209960938	1424.797485351562	-473.8235778808594	-670.0259399414062	1368.497680664062	-547.5586547851562	-655.6505737304688	1090.438598632812	-628.3719482421875	-616.2099609375	1066.333618164062	-578.0907592773438	-773.276611328125	889.18603515625	-631.379638671875	-696.61962890625	876.6787719726562	-673.7562866210938	-658.8816528320312	1033.642822265625	-645.0597534179688	-779.8414916992188	736.0050048828125	-658.9584350585938	-789.07763671875	795.405517578125	-655.7985229492188	-715.4905395507812	792.6063842773438	-685.4571533203125	-817.4735107421875	1634.98583984375	-411.3105773925781	-942.4197998046875	1595.485595703125	-251.1412506103516	-946.0424194335938	1592.984130859375	-381.4862976074219	-800.1487426757812	1649.241577148438	-235.2362823486328	-769.3726806640625	863.7200317382812	-123.2793579101562	-690.4956665039062	863.122314453125	-513.8038940429688	-806.6842651367188	904.6953735351562	-472.3934936523438	-854.0792236328125	899.9008178710938	-217.7153930664062	-750.1334228515625	447.5747375488281	-153.3103485107422	-786.9891357421875	598.510009765625	-140.8445739746094	-675.8943481445312	42.01525497436523	-144.3162078857422	-740.4373779296875	301.6716918945312	-135.5703887939453	-900.3810424804688	42.80257415771484	-241.3329925537109	-819.060546875	48.36347198486328	-259.2546081542969	-831.0428466796875	46.52515411376953	-147.1116485595703	-623.2330932617188	46.35665130615234	-202.9399566650391	-716.923583984375	473.9709777832031	-521.7306518554688	-733.4349365234375	735.16552734375	-539.0453491210938	-689.5811157226562	41.34070205688477	-551.8795776367188	-723.3375854492188	334.0553894042969	-542.1994018554688	-903.84814453125	46.68587112426758	-490.8156433105469	-837.0629272460938	49.63577651977539	-462.1888732910156	-825.171875	47.93029403686523	-569.0859375	-623.976318359375	31.85090446472168	-508.8872680664062	
486	4.850000000000001	-596.68359375	964.2722778320312	-363.0075988769531	-619.4066772460938	961.3388671875	-223.6194305419922	-616.745361328125	1057.594604492188	-306.9956665039062	-879.5291748046875	1256.951293945312	-325.773681640625	-594.1669921875	1180.92333984375	-297.9053039550781	-656.6595458984375	1452.35009765625	-312.7058715820312	-839.7378540039062	1368.305297851562	-316.7361450195312	-583.0123901367188	1330.361328125	-399.5191650390625	-629.8414306640625	1403.307739257812	-213.583984375	-736.7598266601562	1421.659545898438	-141.2952880859375	-727.4881591796875	1301.963745117188	-44.80755233764648	-747.6912231445312	1091.051147460938	-5.425308704376221	-676.1682739257812	1069.903564453125	-77.90765380859375	-841.8056640625	894.89501953125	-29.36949157714844	-788.2393798828125	877.9169921875	19.49755477905273	-770.463623046875	1005.279479980469	10.10832595825195	-860.8982543945312	739.326904296875	-3.601323127746582	-800.3328857421875	803.0927124023438	26.09000968933105	-862.5557861328125	814.2367553710938	-10.30123519897461	-703.2781372070312	1425.245971679688	-476.2939758300781	-671.4521484375	1368.779052734375	-550.0870361328125	-658.4325561523438	1090.055908203125	-629.44677734375	-619.1802978515625	1065.958740234375	-578.973388671875	-777.2421264648438	889.489013671875	-632.0726318359375	-700.30615234375	876.3322143554688	-673.8528442382812	-661.9191284179688	1033.200805664062	-645.8641357421875	-784.5137329101562	736.2261352539062	-659.8125610351562	-793.42724609375	795.7197265625	-656.6900024414062	-719.6119384765625	792.4603271484375	-685.6988525390625	-816.5066528320312	1635.9248046875	-414.0372314453125	-941.4484252929688	1598.558715820312	-253.3572082519531	-945.5558471679688	1595.780395507812	-383.6324157714844	-798.3162841796875	1650.298095703125	-238.0844421386719	-771.3375854492188	863.9522094726562	-124.9315490722656	-692.1028442382812	863.3374633789062	-515.3338012695312	-808.1460571289062	905.0625	-473.848388671875	-855.9551391601562	900.2994995117188	-219.2263336181641	-752.130615234375	447.6048889160156	-154.4710388183594	-789.3618774414062	598.4130859375	-142.1117248535156	-676.05712890625	42.25028991699219	-144.4319000244141	-741.8809814453125	301.7431030273438	-136.3907775878906	-900.5305786132812	42.61882019042969	-241.5584564208984	-819.2051391601562	48.26808929443359	-259.4076232910156	-831.1480712890625	46.59546279907227	-147.3121032714844	-623.3678588867188	46.59189605712891	-202.9688262939453	-718.0285034179688	473.9537048339844	-522.5433349609375	-735.4290161132812	735.2131958007812	-540.1625366210938	-689.5899047851562	41.3677978515625	-551.8779907226562	-724.0468139648438	333.9282531738281	-542.68408203125	-903.867919921875	46.6699104309082	-490.7834167480469	-837.072021484375	49.63427352905273	-462.2025756835938	-825.1923828125	47.91219711303711	-569.0963745117188	-624.0215454101562	31.90926551818848	-508.8699645996094	
487	4.86	-598.2464599609375	964.45361328125	-364.5634460449219	-621.0829467773438	961.5537719726562	-225.2514190673828	-618.3162231445312	1057.70263671875	-308.6789245605469	-880.8545532226562	1257.528930664062	-328.0249633789062	-595.220947265625	1181.147827148438	-299.9274291992188	-657.71044921875	1452.383666992188	-315.0783996582031	-841.0031127929688	1368.927978515625	-319.1486511230469	-584.474609375	1330.297119140625	-401.9723510742188	-631.192138671875	1403.455444335938	-215.8805541992188	-738.2267456054688	1422.266357421875	-143.6402740478516	-728.9446411132812	1302.383544921875	-47.36110687255859	-746.9161987304688	1090.966186523438	-9.374946594238281	-676.3164672851562	1071.15576171875	-83.12090301513672	-836.2235717773438	892.0480346679688	-31.30584526062012	-781.1012573242188	876.8007202148438	16.39359855651855	-767.2662353515625	1004.683410644531	6.543471813201904	-849.7593994140625	735.8882446289062	-4.51390552520752	-790.6156616210938	801.6717529296875	23.36894035339355	-854.03125	810.6612548828125	-11.55206489562988	-704.4921875	1425.647338867188	-478.713134765625	-672.8909301757812	1369.066528320312	-552.5693359375	-661.0818481445312	1089.704956054688	-630.5736083984375	-621.967041015625	1065.595825195312	-579.9517822265625	-781.2395629882812	889.8775024414062	-632.637451171875	-704.0924072265625	875.986328125	-673.9370727539062	-664.9058227539062	1032.793701171875	-646.7137451171875	-789.2833251953125	736.4920654296875	-660.1773681640625	-797.8612060546875	796.0772705078125	-657.2213134765625	-723.8610229492188	792.2709350585938	-685.697509765625	-815.5411376953125	1636.788208007812	-416.7137451171875	-940.422607421875	1601.611328125	-255.4996032714844	-945.0306396484375	1598.559326171875	-385.7096557617188	-796.43359375	1651.266967773438	-240.8846282958984	-773.096435546875	864.1498413085938	-126.5467071533203	-693.6401977539062	863.35546875	-516.8370361328125	-809.6070556640625	905.1947631835938	-475.3043518066406	-857.703857421875	900.609375	-220.70654296875	-753.9050903320312	447.6618041992188	-155.5511779785156	-791.4533081054688	598.33837890625	-143.2681427001953	-676.197509765625	42.47158813476562	-144.5607604980469	-743.137939453125	301.8295593261719	-137.1617584228516	-900.6824340820312	42.45736694335938	-241.7460174560547	-819.3355712890625	48.18841934204102	-259.55029296875	-831.2437133789062	46.65594100952148	-147.4816589355469	-623.5009155273438	46.8058967590332	-203.0337219238281	-719.060546875	473.8856506347656	-523.2401123046875	-737.1941528320312	735.0862426757812	-541.1268920898438	-689.5991821289062	41.40788269042969	-551.8391723632812	-724.7315673828125	333.7625732421875	-543.0993041992188	-903.9182739257812	46.64949417114258	-490.7404479980469	-837.0928955078125	49.61933898925781	-462.1970520019531	-825.21044921875	47.90799713134766	-569.090087890625	-624.049072265625	31.96091461181641	-508.8050231933594	
